<?xml version="1.0" standalone="no"?>
<!DOCTYPE svg PUBLIC "-//W3C//DTD SVG 20010904//EN"
 "http://www.w3.org/TR/2001/REC-SVG-20010904/DTD/svg10.dtd">
<svg version="1.0" xmlns="http://www.w3.org/2000/svg"
 width="3863.000000pt" height="3863.000000pt" viewBox="0 0 3863.000000 3863.000000"
 preserveAspectRatio="xMidYMid meet">
<metadata>
Created by potrace 1.14, written by Peter Selinger 2001-2017
</metadata>
<g transform="translate(0.000000,3863.000000) scale(0.100000,-0.100000)"
fill="#000000" stroke="none">
<path d="M11427 32264 c-1 -1 -38 -4 -82 -8 -216 -16 -438 -121 -602 -286
-111 -109 -163 -199 -292 -495 -5 -11 -18 -41 -30 -67 -11 -26 -75 -172 -142
-325 -66 -153 -134 -307 -151 -343 -17 -36 -31 -69 -33 -75 -1 -5 -10 -28 -20
-50 -9 -22 -49 -112 -87 -200 -38 -88 -79 -180 -90 -205 -11 -25 -43 -97 -70
-160 -73 -167 -187 -428 -209 -479 -11 -24 -80 -181 -154 -350 -73 -168 -168
-385 -210 -481 -72 -163 -96 -218 -100 -230 -3 -9 -36 -84 -54 -125 -10 -22
-87 -197 -171 -390 -84 -192 -163 -372 -175 -400 -13 -27 -61 -138 -108 -246
-47 -108 -93 -214 -103 -235 -9 -21 -18 -41 -19 -44 -1 -3 -10 -23 -20 -45 -9
-22 -55 -128 -102 -235 -46 -107 -90 -208 -98 -225 -46 -105 -60 -136 -81
-183 -13 -29 -24 -54 -24 -57 0 -2 -16 -38 -35 -79 -19 -42 -35 -78 -35 -81 0
-2 -14 -35 -31 -72 -27 -59 -45 -99 -113 -257 -7 -17 -29 -67 -49 -111 -19
-44 -50 -114 -67 -155 -18 -41 -40 -93 -50 -115 -10 -22 -75 -170 -145 -330
-69 -159 -132 -303 -140 -320 -7 -16 -39 -88 -70 -160 -71 -163 -78 -180 -103
-235 -10 -25 -128 -295 -262 -600 -133 -305 -251 -575 -262 -600 -11 -25 -24
-54 -28 -65 -5 -11 -21 -47 -36 -80 -14 -33 -42 -96 -61 -140 -20 -44 -42 -96
-51 -115 -9 -19 -16 -37 -16 -40 -1 -3 -15 -37 -33 -75 -17 -39 -70 -158 -116
-265 -47 -107 -96 -220 -110 -250 -13 -30 -43 -98 -65 -150 -22 -52 -54 -125
-71 -162 -17 -37 -42 -96 -57 -130 -24 -59 -183 -423 -224 -513 -10 -22 -32
-74 -50 -115 -18 -41 -42 -97 -55 -125 -12 -27 -75 -171 -140 -320 -64 -148
-130 -298 -146 -333 -16 -35 -29 -65 -29 -67 0 -3 -11 -28 -24 -57 -43 -95
-64 -142 -109 -248 -25 -58 -56 -130 -70 -160 -13 -30 -39 -89 -57 -130 -18
-41 -43 -98 -56 -127 -13 -28 -24 -54 -24 -57 0 -3 -13 -35 -30 -70 -16 -36
-41 -94 -56 -128 -14 -35 -42 -96 -60 -136 -19 -41 -34 -75 -34 -77 0 -2 -26
-63 -59 -137 -32 -73 -89 -203 -126 -288 -63 -145 -80 -183 -125 -285 -10 -22
-40 -89 -66 -150 -26 -60 -59 -137 -74 -170 -15 -33 -69 -157 -120 -275 -51
-118 -96 -219 -100 -225 -4 -5 -11 -21 -15 -35 -4 -14 -20 -52 -35 -85 -30
-66 -54 -120 -285 -650 -86 -198 -170 -388 -186 -423 -16 -35 -29 -65 -29 -67
0 -3 -129 -299 -189 -435 -16 -36 -36 -81 -44 -100 -19 -43 -93 -211 -117
-265 -10 -22 -46 -105 -80 -185 -34 -80 -73 -167 -85 -195 -12 -27 -84 -192
-159 -365 -76 -173 -147 -335 -158 -360 -11 -25 -41 -92 -65 -150 -25 -58 -56
-130 -70 -160 -13 -30 -37 -84 -53 -120 -16 -36 -48 -108 -71 -160 -23 -52
-70 -162 -106 -244 -35 -81 -77 -177 -94 -212 -16 -36 -29 -67 -29 -70 0 -3
-12 -31 -26 -62 -15 -31 -72 -163 -129 -292 -96 -220 -134 -307 -155 -355 -23
-53 -60 -137 -90 -205 -18 -41 -38 -88 -46 -105 -7 -16 -83 -192 -170 -390
-86 -198 -164 -378 -174 -400 -10 -22 -57 -130 -105 -240 -48 -110 -95 -218
-105 -240 -10 -22 -60 -134 -110 -250 -88 -203 -103 -237 -135 -308 -8 -18
-30 -71 -50 -117 -37 -86 -41 -95 -94 -213 -17 -38 -31 -70 -31 -72 0 -2 -13
-32 -29 -67 -16 -35 -66 -148 -111 -253 -45 -104 -93 -213 -105 -240 -13 -28
-51 -116 -85 -195 -34 -80 -75 -172 -90 -205 -15 -33 -47 -105 -70 -160 -23
-55 -58 -133 -76 -173 -19 -41 -34 -75 -34 -77 0 -4 -216 -501 -240 -550 -10
-22 -55 -124 -99 -227 -109 -255 -126 -320 -125 -503 0 -139 7 -192 40 -296
66 -211 202 -396 383 -524 68 -47 190 -110 237 -121 16 -4 34 -9 39 -13 6 -3
15 -6 20 -7 6 -1 24 -5 40 -9 17 -3 57 -10 90 -15 36 -6 1410 -10 3490 -10
3365 0 3432 1 3525 20 202 42 377 137 517 281 122 127 175 224 298 549 42 113
81 214 86 225 10 24 309 795 313 810 2 6 8 24 15 40 11 27 64 165 157 410 19
50 39 99 44 110 5 11 26 67 48 125 48 128 267 697 292 760 10 25 67 171 126
325 140 365 193 457 336 590 150 141 352 235 558 260 59 7 8672 9 8705 2 11
-3 40 -8 65 -12 182 -29 375 -131 520 -274 135 -135 178 -212 310 -561 17 -47
36 -94 41 -105 5 -11 92 -236 193 -500 101 -264 188 -491 194 -505 6 -14 20
-52 33 -85 12 -33 28 -73 35 -90 7 -16 55 -142 108 -280 165 -433 286 -749
295 -770 5 -11 23 -58 41 -105 18 -47 36 -94 41 -105 5 -11 51 -132 104 -269
105 -274 136 -342 200 -431 133 -187 323 -317 564 -387 l76 -23 3965 -2 c3309
-2 3978 0 4041 11 330 59 610 273 753 577 46 96 80 212 92 309 4 30 8 3941 9
8690 1 6447 4 8648 13 8685 6 28 13 59 16 70 14 59 61 177 98 244 126 230 334
401 591 485 78 25 104 31 200 42 31 4 1343 8 2915 9 1571 1 2873 5 2892 9 223
48 406 144 553 289 138 138 228 299 279 503 l22 89 0 2465 c1 1356 -3 2491 -7
2524 -17 142 -79 306 -159 425 -38 56 -124 158 -158 187 -14 12 -36 32 -50 44
-88 80 -290 180 -411 206 -13 2 -46 10 -74 16 -36 8 -3663 11 -13193 12 -7229
1 -13144 1 -13145 0z m3772 -10358 c13 -3 38 -10 56 -16 18 -6 41 -12 51 -14
28 -6 124 -44 160 -64 94 -51 112 -63 149 -92 158 -124 254 -261 340 -480 20
-52 53 -135 72 -185 20 -49 46 -117 58 -150 35 -94 145 -378 155 -400 4 -11
31 -78 58 -150 27 -71 53 -139 57 -150 5 -11 9 -22 10 -25 1 -3 5 -14 10 -25
10 -27 53 -138 175 -455 56 -146 106 -276 112 -290 17 -40 21 -51 128 -330 56
-146 124 -323 152 -395 27 -71 58 -150 68 -175 97 -243 78 -563 -48 -799 -93
-175 -215 -303 -392 -410 -30 -18 -59 -34 -65 -35 -5 -2 -27 -10 -48 -19 -58
-25 -165 -55 -227 -64 -73 -11 -2358 -10 -2435 0 -78 11 -225 59 -300 98 -194
101 -353 266 -445 461 -70 150 -96 274 -93 448 2 164 15 206 233 765 62 160
119 308 127 330 8 22 20 54 28 72 8 17 15 36 15 42 0 6 4 19 10 29 5 9 26 60
46 112 20 52 90 235 156 405 66 171 130 337 143 370 12 33 57 150 100 260 42
110 97 252 122 315 24 63 48 124 52 135 12 28 55 139 57 145 0 3 6 19 13 35 6
17 26 65 43 108 62 156 193 322 334 423 117 83 285 152 415 170 24 3 46 8 48
10 6 6 270 -3 300 -10z"/>
</g>
</svg>
