<?xml version="1.0" standalone="no"?>
<!DOCTYPE svg PUBLIC "-//W3C//DTD SVG 20010904//EN"
 "http://www.w3.org/TR/2001/REC-SVG-20010904/DTD/svg10.dtd">
<svg version="1.0" xmlns="http://www.w3.org/2000/svg"
 width="4167.000000pt" height="4167.000000pt" viewBox="0 0 4167.000000 4167.000000"
 preserveAspectRatio="xMidYMid meet">
<metadata>
Created by potrace 1.14, written by Peter Selinger 2001-2017
</metadata>
<g transform="translate(0.000000,4167.000000) scale(0.100000,-0.100000)"
fill="#000000" stroke="none">
<path d="M13170 33779 c-135 -9 -205 -21 -340 -56 -102 -26 -283 -97 -365
-142 -55 -30 -181 -109 -205 -128 -294 -232 -459 -442 -595 -758 -7 -16 -23
-52 -35 -80 -12 -27 -42 -95 -65 -150 -24 -55 -54 -125 -68 -155 -13 -30 -39
-87 -56 -127 -17 -39 -41 -93 -53 -120 -11 -26 -22 -52 -23 -58 -2 -5 -16 -39
-33 -75 -29 -61 -429 -976 -532 -1215 -26 -60 -57 -130 -68 -155 -11 -25 -34
-77 -51 -117 -17 -39 -41 -93 -53 -120 -12 -26 -22 -50 -23 -53 -1 -3 -14 -32
-29 -65 -15 -33 -29 -64 -30 -70 -2 -5 -12 -30 -23 -55 -11 -25 -69 -155 -127
-290 -59 -135 -113 -258 -120 -275 -8 -16 -30 -68 -51 -115 -20 -47 -45 -103
-55 -125 -16 -36 -71 -163 -104 -240 -7 -16 -29 -66 -49 -110 -19 -44 -50
-114 -67 -155 -18 -41 -42 -97 -55 -125 -12 -27 -185 -423 -385 -880 -199
-456 -375 -858 -391 -893 -16 -35 -29 -65 -29 -67 0 -3 -11 -28 -24 -57 -13
-29 -79 -179 -146 -333 -130 -299 -178 -407 -217 -495 -14 -30 -29 -64 -33
-75 -8 -20 -237 -547 -270 -620 -10 -22 -42 -94 -70 -160 -29 -66 -65 -148
-81 -183 -16 -35 -29 -66 -29 -69 0 -3 -14 -36 -31 -72 -17 -36 -37 -79 -44
-96 -61 -142 -212 -490 -230 -530 -13 -27 -69 -156 -125 -285 -56 -129 -110
-253 -120 -275 -10 -22 -57 -130 -105 -240 -89 -205 -95 -221 -138 -315 -14
-30 -46 -103 -71 -163 -25 -59 -55 -125 -66 -147 -11 -22 -18 -40 -16 -40 2 0
-9 -27 -24 -59 -16 -33 -41 -88 -55 -123 -15 -35 -35 -81 -45 -103 -11 -22
-49 -110 -86 -195 -36 -85 -76 -177 -89 -205 -27 -61 -163 -373 -275 -630 -45
-104 -93 -214 -107 -243 -23 -52 -199 -456 -578 -1322 -222 -508 -202 -464
-236 -538 -16 -35 -29 -65 -29 -68 0 -3 -19 -47 -41 -97 -81 -179 -89 -198
-89 -202 0 -2 -13 -33 -29 -67 -45 -99 -64 -144 -130 -296 -57 -131 -82 -188
-130 -297 -10 -22 -69 -157 -131 -300 -61 -143 -127 -293 -146 -333 -19 -41
-34 -80 -34 -88 0 -8 -4 -14 -9 -14 -5 0 -11 -10 -14 -22 -5 -24 -269 -630
-396 -911 -17 -37 -31 -70 -31 -73 0 -3 -12 -31 -26 -62 -15 -31 -56 -124 -91
-207 -36 -82 -74 -170 -85 -195 -11 -25 -24 -54 -29 -65 -4 -11 -26 -60 -49
-108 -22 -49 -40 -91 -40 -94 0 -2 -12 -30 -26 -61 -14 -31 -45 -102 -69 -157
-23 -55 -52 -120 -63 -145 -11 -25 -46 -103 -77 -175 -31 -71 -63 -143 -70
-160 -7 -16 -44 -100 -81 -185 -37 -85 -77 -177 -89 -205 -13 -27 -46 -104
-74 -170 -29 -66 -58 -133 -66 -150 -7 -16 -23 -52 -35 -80 -12 -27 -28 -63
-35 -80 -8 -16 -55 -124 -105 -240 -107 -246 -112 -256 -138 -315 -10 -25 -65
-151 -122 -280 -121 -279 -154 -354 -209 -478 -22 -50 -41 -94 -41 -96 0 -3
-18 -44 -40 -91 -22 -47 -40 -88 -40 -90 0 -3 -11 -28 -24 -57 -13 -29 -41
-91 -61 -138 -21 -47 -46 -103 -55 -125 -10 -22 -57 -130 -105 -240 -81 -186
-164 -376 -205 -470 -10 -22 -33 -76 -53 -120 -19 -44 -44 -100 -55 -125 -11
-25 -32 -73 -46 -107 -15 -35 -37 -86 -50 -115 -13 -29 -38 -87 -56 -128 -18
-41 -40 -93 -50 -115 -17 -37 -119 -271 -407 -930 -58 -132 -113 -258 -123
-280 -10 -22 -32 -74 -50 -115 -17 -41 -38 -88 -45 -105 -7 -16 -48 -109 -90
-205 -42 -96 -85 -193 -95 -215 -10 -22 -39 -87 -63 -145 -24 -58 -55 -127
-67 -155 -12 -27 -28 -63 -35 -80 -7 -16 -34 -77 -59 -134 -25 -57 -51 -121
-56 -143 -41 -152 35 -319 182 -399 l63 -34 4120 -3 c2956 -2 4131 0 4160 8
71 19 125 53 174 106 39 42 57 77 95 176 27 68 54 137 62 155 8 17 14 33 14
36 0 3 5 18 12 34 6 15 12 33 14 38 5 16 414 1077 428 1110 7 17 19 46 26 65
6 19 16 44 21 55 5 11 50 128 100 260 50 132 97 254 104 270 7 17 57 145 110
285 54 140 162 424 242 630 79 206 178 463 219 570 41 107 79 204 84 215 4 11
22 58 40 105 63 167 85 215 122 261 43 55 120 105 186 120 49 11 9460 16 9512
5 14 -3 53 -20 87 -36 87 -43 139 -107 184 -227 5 -13 13 -33 18 -45 12 -28
311 -808 358 -933 19 -49 43 -109 54 -132 10 -24 19 -49 19 -56 0 -8 3 -17 8
-21 4 -4 7 -11 7 -14 0 -7 21 -64 36 -97 5 -11 35 -90 68 -175 32 -85 97 -254
144 -375 46 -121 115 -299 151 -395 37 -96 71 -184 76 -195 5 -11 31 -78 58
-150 28 -71 73 -188 100 -260 28 -71 91 -238 141 -370 140 -369 151 -395 193
-468 152 -263 403 -449 713 -529 l90 -23 3755 0 3755 0 67 33 c99 49 176 149
192 252 3 19 6 4018 6 8885 1 5359 5 8872 10 8905 5 30 12 69 14 85 19 117
121 345 208 463 201 274 527 459 855 488 40 4 1282 8 2760 9 1479 1 2704 5
2723 9 19 4 53 12 75 18 22 5 47 11 55 13 47 9 156 53 235 93 164 85 319 218
415 357 19 28 38 52 41 55 16 13 99 183 122 250 32 92 45 150 63 265 6 41 6
4584 0 4612 -2 11 -8 43 -12 70 -57 351 -270 665 -582 852 -72 43 -188 97
-252 116 -69 21 -99 28 -170 41 -78 15 -1107 17 -12385 18 -6765 0 -12343 -2
-12395 -5z m3400 -9958 c175 -54 319 -158 417 -301 36 -54 56 -96 118 -255 26
-66 50 -129 55 -140 4 -11 22 -58 40 -105 18 -47 36 -94 41 -105 7 -17 32 -81
116 -300 8 -22 80 -209 160 -415 80 -206 210 -544 289 -750 79 -206 148 -384
153 -395 5 -11 23 -58 41 -105 18 -47 36 -94 40 -105 5 -11 37 -92 70 -180 34
-88 72 -187 85 -220 13 -33 44 -114 69 -180 26 -66 51 -129 56 -140 5 -11 29
-74 54 -140 24 -66 67 -176 94 -245 44 -112 61 -169 77 -250 3 -14 5 -61 6
-105 0 -328 -248 -624 -571 -679 -59 -10 -411 -13 -1630 -13 -1448 0 -1560 1
-1635 18 -93 20 -154 45 -229 93 -191 122 -318 348 -319 566 -1 113 19 215 60
310 8 19 19 44 23 55 4 11 15 38 23 60 32 80 190 491 204 529 8 22 34 89 57
150 24 61 59 152 79 201 19 50 56 146 83 215 27 69 49 127 50 130 0 3 5 14 9
25 5 11 71 182 147 380 77 198 185 477 240 620 55 143 111 287 123 320 13 33
68 177 123 320 56 143 131 337 167 430 36 94 69 179 74 190 5 11 17 42 27 69
20 56 85 165 123 209 115 131 258 216 426 251 95 21 276 14 365 -13z"/>
</g>
</svg>
