<svg xmlns="http://www.w3.org/2000/svg" viewBox="0 0 1911 696.28">
  <defs>
    <style>
      .cls-2{stroke-width:0;fill:#fff}
    </style>
  </defs>
  <g id="Livello_2">
    <path class="cls-2" d="M402.62 521.59a2251.66 2251.66 0 0 0-18.72-55.84c-6.68-19.1-13.34-38.13-19.96-57.06H160.23c-6.59 19.03-13.2 38.09-19.8 57.21-6.62 19.12-12.78 37.69-18.49 55.69H0c19.63-56.19 38.25-108.12 55.86-155.8 17.62-47.66 34.85-92.58 51.71-134.72 16.86-42.15 33.47-82.16 49.83-120.05C173.76 73.14 190.75 36.13 208.37 0h111.3c17.13 36.13 34.02 73.14 50.66 111.02 16.63 37.89 33.4 77.9 50.29 120.05 16.89 42.15 34.15 87.06 51.79 134.72 17.64 47.68 36.29 99.61 55.96 155.8H402.62ZM261.55 118.17c-2.62 7.57-6.46 17.89-11.5 30.92-5.04 13.04-10.78 28.11-17.23 45.2-6.44 17.09-13.65 35.9-21.62 56.45s-16.05 42.09-24.27 64.63h149.16c-7.99-22.61-15.71-44.23-23.19-64.83s-14.59-39.46-21.32-56.55c-6.74-17.09-12.64-32.14-17.72-45.17-5.08-13.02-9.18-23.23-12.3-30.64Z"/>
    <path d="M584.06 27.1 696.21 9.04V125.7h134.73v93.33H696.21v139.24c0 23.59 4.14 42.41 12.42 56.45 8.28 14.06 24.96 21.08 50.05 21.08 12.04 0 24.46-1.13 37.26-3.39 12.8-2.26 24.46-5.39 35-9.41l15.81 87.31c-13.55 5.53-28.6 10.29-45.16 14.3-16.56 4.01-36.88 6.02-60.97 6.02-30.61 0-55.96-4.14-76.02-12.42-20.08-8.28-36.13-19.82-48.17-34.63-12.04-14.79-20.45-32.74-25.21-53.82-4.78-21.07-7.15-44.4-7.15-70V27.1Zm779.75 123.11v-141h294.26c57.6 0 113.45 20.8 156.37 59.21C1862.7 111.6 1911 181.87 1911 290.21l-91.56-78.71h-455.63v-61.29Z" style="fill:#00bf63;stroke-width:0"/>
    <path class="cls-2" d="M1277.26 322.89c0 31.12-4.52 59.59-13.55 85.43-9.03 25.85-22.08 47.92-39.14 66.24-17.07 18.32-37.52 32.49-61.34 42.52-23.84 10.03-50.56 15.06-80.16 15.06s-55.58-5.02-79.41-15.06c-23.84-10.03-44.29-24.2-61.34-42.52-17.06-18.31-30.36-40.39-39.89-66.24-9.54-25.84-14.3-54.31-14.3-85.43s4.89-59.46 14.68-85.05c9.78-25.59 23.33-47.42 40.64-65.48 17.31-18.06 37.88-32.11 61.72-42.15 23.83-10.03 49.79-15.05 77.9-15.05s54.81 5.02 78.65 15.05c23.83 10.04 44.28 24.09 61.34 42.15 17.05 18.06 30.36 39.89 39.89 65.48 9.53 25.59 14.3 53.94 14.3 85.05Zm-114.4 0c0-34.62-6.9-61.83-20.7-81.66-13.8-19.82-33.49-29.73-59.08-29.73s-45.42 9.91-59.46 29.73c-14.06 19.83-21.08 47.04-21.08 81.66s7.02 62.1 21.08 82.42c14.04 20.32 33.87 30.48 59.46 30.48s45.28-10.16 59.08-30.48c13.8-20.32 20.7-47.79 20.7-82.42Zm418.47-11.29c0-36.13-4.65-61.72-13.92-76.77-9.29-15.05-25.21-22.58-47.8-22.58-7.03 0-14.3.38-21.83 1.13-7.53.75-14.81 1.64-21.83 2.63v305.58H1363.8V139.24c9.53-2.5 20.7-5.14 33.5-7.9 12.79-2.75 26.34-5.27 40.64-7.53 14.3-2.26 28.98-4.01 44.03-5.27 15.05-1.25 29.85-1.88 44.41-1.88 28.6 0 51.8 3.65 69.62 10.91 17.8 7.28 32.48 15.94 44.03 25.97 16.05-11.54 34.49-20.57 55.32-27.1 20.82-6.51 40.01-9.78 57.58-9.78 31.61 0 57.58 4.4 77.9 13.17 20.32 8.78 36.51 21.2 48.55 37.26s20.32 35.13 24.84 57.2c4.52 22.09 6.78 46.67 6.78 73.76v223.54h-112.15V311.6c0-36.13-4.64-61.72-13.92-76.77-9.29-15.05-25.21-22.58-47.8-22.58-6.02 0-14.43 1.5-25.21 4.52-10.79 3.01-19.7 6.77-26.72 11.29 3.5 11.55 5.76 23.71 6.77 36.5 1 12.8 1.5 26.47 1.5 41.02v216.01h-112.14V311.6Z"/>
  </g>
  <path class="cls-2" d="M388.24 694.98h-22.92l-12.86-49.86c-.48-1.78-1.29-5.44-2.44-11.01-1.15-5.56-1.81-9.29-1.98-11.2-.26 2.34-.91 6.09-1.95 11.26s-1.84 8.86-2.4 11.07l-12.79 49.73h-22.85l-24.22-94.92h19.8l12.14 51.81c2.12 9.57 3.66 17.85 4.61 24.87.26-2.47.85-6.29 1.78-11.46.93-5.17 1.81-9.19 2.63-12.04l13.83-53.17h19.02l13.83 53.17c.61 2.38 1.36 6.02 2.27 10.91s1.6 9.09 2.08 12.6c.43-3.38 1.13-7.58 2.08-12.63.95-5.04 1.82-9.12 2.6-12.24l12.08-51.81h19.8l-24.15 94.92Zm132.65 0h-54.67v-94.92h54.67v16.49h-34.54v20.84h32.14v16.49h-32.14v24.48h34.54v16.62Zm61.69-94.92h29.54c13.46 0 23.23 1.91 29.31 5.75 6.08 3.83 9.12 9.92 9.12 18.28 0 5.67-1.33 10.32-3.99 13.96-2.66 3.64-6.2 5.82-10.62 6.56v.65c6.02 1.34 10.36 3.85 13.02 7.53s3.99 8.57 3.99 14.67c0 8.66-3.13 15.41-9.38 20.26-6.26 4.85-14.75 7.27-25.48 7.27h-35.51v-94.92Zm20.13 37.59h11.69c5.45 0 9.4-.84 11.85-2.53 2.44-1.69 3.67-4.48 3.67-8.37 0-3.64-1.33-6.24-3.99-7.82s-6.87-2.37-12.63-2.37h-10.58v21.1Zm0 15.97v24.73h13.11c5.54 0 9.63-1.06 12.27-3.18 2.64-2.12 3.96-5.36 3.96-9.74 0-7.88-5.63-11.81-16.88-11.81H602.7Zm243.54 15c0 8.57-3.08 15.32-9.25 20.26-6.17 4.93-14.75 7.4-25.74 7.4-10.13 0-19.09-1.9-26.88-5.71v-18.7c6.41 2.86 11.83 4.87 16.26 6.04 4.44 1.17 8.49 1.75 12.17 1.75 4.42 0 7.8-.84 10.16-2.53 2.36-1.69 3.54-4.2 3.54-7.53 0-1.86-.52-3.52-1.56-4.97-1.04-1.45-2.56-2.85-4.58-4.19-2.01-1.34-6.11-3.48-12.3-6.43-5.8-2.73-10.15-5.35-13.05-7.85-2.9-2.51-5.22-5.43-6.95-8.77-1.73-3.33-2.6-7.23-2.6-11.69 0-8.4 2.85-15 8.54-19.8 5.69-4.8 13.56-7.21 23.6-7.21 4.93 0 9.64.58 14.12 1.75s9.16 2.81 14.06 4.94l-6.49 15.65c-5.06-2.08-9.25-3.53-12.56-4.35-3.31-.82-6.57-1.23-9.77-1.23-3.81 0-6.73.89-8.76 2.66-2.04 1.78-3.05 4.09-3.05 6.95 0 1.78.41 3.32 1.23 4.64.82 1.32 2.13 2.6 3.93 3.83 1.8 1.23 6.05 3.45 12.76 6.65 8.87 4.24 14.95 8.49 18.24 12.76 3.29 4.26 4.93 9.49 4.93 15.68ZM960 694.98h-54.67v-94.92H960v16.49h-34.54v20.84h32.14v16.49h-32.14v24.48H960v16.62Zm81.81-36.42v36.42h-20.13v-94.92h27.66c12.9 0 22.44 2.35 28.63 7.04 6.19 4.7 9.28 11.83 9.28 21.39 0 5.58-1.54 10.55-4.61 14.9-3.07 4.35-7.42 7.76-13.05 10.23 14.28 21.34 23.59 35.12 27.92 41.36h-22.33l-22.66-36.42h-10.71Zm0-16.36h6.49c6.36 0 11.06-1.06 14.09-3.18s4.55-5.45 4.55-10-1.55-7.7-4.64-9.61c-3.09-1.9-7.89-2.86-14.38-2.86h-6.1v25.64Zm163.68-42.14h20.32l-32.27 94.92h-21.94l-32.2-94.92h20.32l17.86 56.48c.99 3.33 2.02 7.22 3.08 11.65 1.06 4.44 1.72 7.52 1.98 9.25.48-3.98 2.1-10.95 4.87-20.91l17.98-56.48Zm74.15 94.92v-94.92h20.13v94.92h-20.13Zm126.23-79.53c-7.57 0-13.44 2.85-17.59 8.54-4.16 5.69-6.23 13.62-6.23 23.8 0 21.16 7.94 31.75 23.83 31.75 6.66 0 14.74-1.67 24.22-5v16.88c-7.79 3.25-16.49 4.87-26.1 4.87-13.81 0-24.37-4.19-31.68-12.56-7.32-8.38-10.97-20.4-10.97-36.06 0-9.87 1.8-18.51 5.39-25.94 3.59-7.42 8.75-13.11 15.48-17.08 6.73-3.96 14.62-5.94 23.67-5.94s18.48 2.23 27.79 6.69l-6.49 16.36c-3.55-1.69-7.12-3.16-10.71-4.41-3.59-1.26-7.12-1.88-10.58-1.88Zm140.95 79.53h-54.67v-94.92h54.67v16.49h-34.54v20.84h32.14v16.49h-32.14v24.48h34.54v16.62Zm117.72-26.36c0 8.57-3.09 15.32-9.25 20.26-6.17 4.93-14.75 7.4-25.74 7.4-10.13 0-19.09-1.9-26.88-5.71v-18.7c6.41 2.86 11.83 4.87 16.26 6.04 4.44 1.17 8.49 1.75 12.17 1.75 4.41 0 7.8-.84 10.16-2.53 2.36-1.69 3.54-4.2 3.54-7.53 0-1.86-.52-3.52-1.56-4.97-1.04-1.45-2.56-2.85-4.58-4.19-2.01-1.34-6.11-3.48-12.3-6.43-5.8-2.73-10.15-5.35-13.05-7.85-2.9-2.51-5.22-5.43-6.95-8.77-1.73-3.33-2.6-7.23-2.6-11.69 0-8.4 2.85-15 8.54-19.8 5.69-4.8 13.56-7.21 23.6-7.21 4.93 0 9.64.58 14.12 1.75 4.48 1.17 9.16 2.81 14.06 4.94l-6.49 15.65c-5.07-2.08-9.25-3.53-12.56-4.35-3.31-.82-6.57-1.23-9.77-1.23-3.81 0-6.73.89-8.77 2.66s-3.05 4.09-3.05 6.95c0 1.78.41 3.32 1.23 4.64.82 1.32 2.13 2.6 3.93 3.83 1.79 1.23 6.05 3.45 12.76 6.65 8.87 4.24 14.95 8.49 18.24 12.76 3.29 4.26 4.93 9.49 4.93 15.68Z" id="Livello_3"/>
</svg>
